# xmcd
#
# Track frame offsets:
#	150
#	14340
#	31343
#	47423
#	61538
#	77778
#	93992
#	114794
#	130527
#
# Disc length: 1991 seconds
#
# Revision: 1
# Processed by: cddbd v1.5.2PL0 Copyright (c) Steve Scherf et al.
# Submitted via: audiograbber 1.83.01
#
DISCID=5907c509
DTITLE=Singer's Solution - SSC426
DYEAR=2013
DGENRE=Karaoke
TTITLE0=Musgraves, Kacy - Blowin' Smoke
TTITLE1=Band Perry, The - Chainsaw
TTITLE2=Moore, Kip - Hey Pretty Girl
TTITLE3=Rhett, Thomas - It Goes Like This
TTITLE4=Brice, Lee - Parking Lot Party
TTITLE5=Farr, Tyler - Redneck Crazy
TTITLE6=McGraw, Tim - Southern Girl
TTITLE7=Bradbery, Danielle - Heart Of Dixie, The
TTITLE8=Buffett, Jimmy and Keith, Toby - Too Drunk To Karaoke
EXTD=
EXTT0=
EXTT1=
EXTT2=
EXTT3=
EXTT4=
EXTT5=
EXTT6=
EXTT7=
EXTT8=
PLAYORDER=
